<svg width="222" height="54" viewBox="0 0 222 54" fill="none" xmlns="http://www.w3.org/2000/svg">
<path opacity="0.7" d="M107.545 8.90909C107.545 8.37547 107.676 7.88826 107.938 7.44744C108.199 7.00663 108.549 6.65696 108.987 6.39844C109.427 6.1366 109.915 6.00568 110.448 6.00568C110.912 6.00568 111.341 6.10677 111.736 6.30895C112.13 6.50781 112.457 6.78125 112.715 7.12926C112.974 7.47727 113.131 7.86837 113.188 8.30256H111.895C111.835 7.99432 111.666 7.74242 111.388 7.54688C111.113 7.34801 110.799 7.24858 110.448 7.24858C110.143 7.24858 109.865 7.32315 109.613 7.4723C109.361 7.62145 109.161 7.82197 109.011 8.07386C108.862 8.32244 108.788 8.60085 108.788 8.90909C108.788 9.21402 108.862 9.49242 109.011 9.74432C109.161 9.99621 109.361 10.1967 109.613 10.3459C109.865 10.495 110.143 10.5696 110.448 10.5696C110.799 10.5696 111.099 10.4718 111.348 10.2763C111.597 10.0774 111.752 9.82386 111.815 9.51562H113.108C113.052 9.94981 112.901 10.3409 112.656 10.6889C112.41 11.0369 112.097 11.312 111.716 11.5142C111.335 11.7131 110.912 11.8125 110.448 11.8125C109.915 11.8125 109.427 11.6832 108.987 11.4247C108.549 11.1629 108.199 10.8116 107.938 10.3707C107.676 9.92992 107.545 9.44271 107.545 8.90909ZM110.403 14.1591C109.681 14.1591 109.001 14.0232 108.365 13.7514C107.732 13.4796 107.174 13.1035 106.69 12.6229C106.209 12.139 105.831 11.5805 105.556 10.9474C105.284 10.3144 105.15 9.63494 105.153 8.90909C105.157 8.18324 105.294 7.50379 105.566 6.87074C105.841 6.23769 106.219 5.68087 106.7 5.20028C107.18 4.71638 107.737 4.33854 108.37 4.06676C109.003 3.79498 109.681 3.65909 110.403 3.65909C111.129 3.65909 111.809 3.79498 112.442 4.06676C113.078 4.33854 113.635 4.71638 114.112 5.20028C114.593 5.68087 114.969 6.23769 115.241 6.87074C115.513 7.50379 115.65 8.18324 115.653 8.90909C115.657 9.63494 115.522 10.3144 115.251 10.9474C114.979 11.5805 114.603 12.139 114.122 12.6229C113.642 13.1035 113.083 13.4796 112.447 13.7514C111.81 14.0232 111.129 14.1591 110.403 14.1591ZM110.403 12.8366C110.947 12.8366 111.457 12.7356 111.935 12.5334C112.412 12.3312 112.83 12.0511 113.188 11.6932C113.549 11.3319 113.83 10.9143 114.033 10.4403C114.235 9.96307 114.334 9.45431 114.331 8.91406C114.331 8.3705 114.228 7.86009 114.023 7.38281C113.821 6.90554 113.539 6.48793 113.178 6.12997C112.82 5.7687 112.404 5.48698 111.93 5.2848C111.456 5.08262 110.947 4.98153 110.403 4.98153C109.863 4.98153 109.356 5.08262 108.882 5.2848C108.408 5.48698 107.991 5.7687 107.629 6.12997C107.271 6.49124 106.99 6.91051 106.784 7.38778C106.579 7.86174 106.476 8.3705 106.476 8.91406C106.473 9.45099 106.572 9.9581 106.774 10.4354C106.98 10.9093 107.261 11.3269 107.619 11.6882C107.981 12.0462 108.398 12.3279 108.872 12.5334C109.349 12.7356 109.86 12.8366 110.403 12.8366ZM121.634 14V3.81818H125.263C126.056 3.81818 126.712 3.96236 127.232 4.25071C127.753 4.53906 128.142 4.93347 128.401 5.43395C128.659 5.93111 128.788 6.49124 128.788 7.11435C128.788 7.74077 128.657 8.30421 128.396 8.80469C128.137 9.30185 127.746 9.69626 127.222 9.98793C126.702 10.2763 126.047 10.4205 125.259 10.4205H122.763V9.1179H125.119C125.62 9.1179 126.026 9.03172 126.337 8.85938C126.649 8.68371 126.878 8.44508 127.023 8.14347C127.169 7.84186 127.242 7.49882 127.242 7.11435C127.242 6.72988 127.169 6.38849 127.023 6.0902C126.878 5.7919 126.647 5.55824 126.332 5.3892C126.021 5.22017 125.61 5.13565 125.099 5.13565H123.17V14H121.634ZM139.046 7.12926H137.495C137.435 6.79782 137.324 6.50615 137.162 6.25426C136.999 6.00237 136.8 5.78859 136.565 5.61293C136.33 5.43726 136.066 5.30469 135.775 5.2152C135.486 5.12571 135.18 5.08097 134.855 5.08097C134.268 5.08097 133.743 5.22846 133.279 5.52344C132.818 5.81842 132.454 6.25095 132.185 6.82102C131.92 7.3911 131.787 8.08712 131.787 8.90909C131.787 9.73769 131.92 10.437 132.185 11.0071C132.454 11.5772 132.82 12.008 133.284 12.2997C133.748 12.5914 134.27 12.7372 134.85 12.7372C135.171 12.7372 135.476 12.6941 135.765 12.608C136.056 12.5185 136.32 12.3875 136.555 12.2152C136.791 12.0429 136.989 11.8324 137.152 11.5838C137.318 11.3319 137.432 11.0436 137.495 10.7188L139.046 10.7237C138.963 11.2242 138.802 11.6849 138.564 12.1058C138.328 12.5234 138.025 12.8847 137.654 13.1896C137.286 13.4912 136.865 13.7249 136.391 13.8906C135.917 14.0563 135.4 14.1392 134.84 14.1392C133.958 14.1392 133.173 13.9304 132.483 13.5128C131.794 13.0919 131.251 12.4903 130.853 11.7081C130.458 10.9259 130.261 9.9929 130.261 8.90909C130.261 7.82197 130.46 6.88897 130.858 6.11008C131.256 5.32789 131.799 4.72798 132.488 4.31037C133.178 3.88944 133.962 3.67898 134.84 3.67898C135.38 3.67898 135.884 3.75687 136.351 3.91264C136.822 4.0651 137.245 4.29048 137.619 4.58878C137.994 4.88376 138.304 5.24503 138.549 5.67258C138.794 6.09683 138.96 6.58239 139.046 7.12926ZM150.143 6.4929C150.09 6.02225 149.871 5.65767 149.486 5.39915C149.102 5.13731 148.618 5.00639 148.035 5.00639C147.617 5.00639 147.256 5.07268 146.951 5.20526C146.646 5.33452 146.409 5.51349 146.24 5.74219C146.074 5.96757 145.991 6.22443 145.991 6.51278C145.991 6.75473 146.048 6.96354 146.16 7.1392C146.276 7.31487 146.427 7.46236 146.613 7.58168C146.802 7.69768 147.004 7.79545 147.219 7.875C147.435 7.95123 147.642 8.0142 147.841 8.06392L148.835 8.32244C149.16 8.40199 149.493 8.50971 149.834 8.6456C150.176 8.78149 150.492 8.96046 150.784 9.18253C151.076 9.40459 151.311 9.67969 151.49 10.0078C151.672 10.3359 151.763 10.7287 151.763 11.1861C151.763 11.7628 151.614 12.2749 151.316 12.7223C151.021 13.1697 150.592 13.5227 150.028 13.7812C149.468 14.0398 148.79 14.169 147.995 14.169C147.233 14.169 146.573 14.0481 146.016 13.8061C145.459 13.5642 145.023 13.2211 144.709 12.777C144.394 12.3295 144.22 11.7992 144.187 11.1861H145.728C145.758 11.554 145.877 11.8606 146.086 12.1058C146.298 12.3478 146.568 12.5284 146.896 12.6477C147.228 12.7637 147.59 12.8217 147.985 12.8217C148.419 12.8217 148.805 12.7538 149.143 12.6179C149.485 12.4787 149.753 12.2865 149.949 12.0412C150.144 11.7926 150.242 11.5026 150.242 11.1712C150.242 10.8696 150.156 10.6226 149.983 10.4304C149.814 10.2382 149.584 10.0791 149.292 9.95312C149.004 9.82718 148.678 9.71615 148.313 9.62003L147.11 9.2919C146.295 9.06984 145.648 8.74337 145.171 8.3125C144.697 7.88163 144.46 7.31155 144.46 6.60227C144.46 6.01562 144.619 5.50355 144.937 5.06605C145.256 4.62855 145.686 4.28883 146.23 4.04688C146.773 3.80161 147.387 3.67898 148.069 3.67898C148.759 3.67898 149.367 3.79995 149.894 4.0419C150.424 4.28385 150.842 4.61695 151.147 5.04119C151.452 5.46212 151.611 5.94602 151.624 6.4929H150.143ZM157.044 6.36364V7.55682H152.873V6.36364H157.044ZM153.992 4.53409H155.478V11.7578C155.478 12.0462 155.521 12.2633 155.608 12.4091C155.694 12.5516 155.805 12.6494 155.941 12.7024C156.08 12.7521 156.231 12.777 156.393 12.777C156.512 12.777 156.617 12.7687 156.706 12.7521C156.796 12.7356 156.865 12.7223 156.915 12.7124L157.184 13.9403C157.097 13.9735 156.975 14.0066 156.816 14.0398C156.657 14.0762 156.458 14.0961 156.219 14.0994C155.828 14.1061 155.463 14.0365 155.125 13.8906C154.787 13.7448 154.514 13.5194 154.305 13.2145C154.096 12.9096 153.992 12.5268 153.992 12.0661V4.53409ZM161.823 14.1541C161.107 14.1541 160.483 13.9901 159.949 13.6619C159.415 13.3338 159.001 12.8748 158.706 12.2848C158.411 11.6948 158.264 11.0054 158.264 10.2166C158.264 9.42448 158.411 8.73177 158.706 8.13849C159.001 7.54522 159.415 7.08452 159.949 6.75639C160.483 6.42827 161.107 6.2642 161.823 6.2642C162.539 6.2642 163.164 6.42827 163.698 6.75639C164.231 7.08452 164.646 7.54522 164.941 8.13849C165.235 8.73177 165.383 9.42448 165.383 10.2166C165.383 11.0054 165.235 11.6948 164.941 12.2848C164.646 12.8748 164.231 13.3338 163.698 13.6619C163.164 13.9901 162.539 14.1541 161.823 14.1541ZM161.828 12.9062C162.292 12.9062 162.677 12.7836 162.982 12.5384C163.287 12.2931 163.512 11.9666 163.658 11.5589C163.807 11.1513 163.882 10.7022 163.882 10.2116C163.882 9.72443 163.807 9.27699 163.658 8.86932C163.512 8.45833 163.287 8.12855 162.982 7.87997C162.677 7.63139 162.292 7.5071 161.828 7.5071C161.361 7.5071 160.973 7.63139 160.665 7.87997C160.36 8.12855 160.133 8.45833 159.984 8.86932C159.838 9.27699 159.765 9.72443 159.765 10.2116C159.765 10.7022 159.838 11.1513 159.984 11.5589C160.133 11.9666 160.36 12.2931 160.665 12.5384C160.973 12.7836 161.361 12.9062 161.828 12.9062ZM167.042 14V6.36364H168.479V7.5767H168.559C168.698 7.16572 168.943 6.84257 169.294 6.60724C169.649 6.36861 170.05 6.24929 170.498 6.24929C170.59 6.24929 170.7 6.2526 170.826 6.25923C170.955 6.26586 171.056 6.27415 171.129 6.28409V7.70597C171.069 7.68939 170.963 7.67116 170.811 7.65128C170.658 7.62808 170.506 7.61648 170.353 7.61648C170.002 7.61648 169.689 7.69105 169.414 7.8402C169.142 7.98603 168.926 8.18987 168.767 8.4517C168.608 8.71023 168.529 9.00521 168.529 9.33665V14H167.042ZM175.433 14.1541C174.681 14.1541 174.033 13.9934 173.489 13.6719C172.949 13.3471 172.531 12.8913 172.236 12.3047C171.945 11.7147 171.799 11.0237 171.799 10.2315C171.799 9.44934 171.945 8.75994 172.236 8.16335C172.531 7.56676 172.942 7.10109 173.469 6.76633C174 6.43158 174.619 6.2642 175.329 6.2642C175.76 6.2642 176.177 6.33546 176.581 6.47798C176.986 6.6205 177.349 6.84422 177.67 7.14915C177.992 7.45407 178.245 7.85014 178.431 8.33736C178.617 8.82126 178.709 9.40956 178.709 10.1023V10.6293H172.639V9.51562H177.253C177.253 9.12453 177.173 8.77817 177.014 8.47656C176.855 8.17164 176.631 7.93134 176.343 7.75568C176.058 7.58002 175.723 7.49219 175.339 7.49219C174.921 7.49219 174.556 7.59493 174.245 7.80043C173.937 8.0026 173.698 8.26776 173.529 8.59588C173.363 8.92069 173.28 9.27367 173.28 9.65483V10.5249C173.28 11.0353 173.37 11.4695 173.549 11.8274C173.731 12.1854 173.985 12.4588 174.309 12.6477C174.634 12.8333 175.014 12.9261 175.448 12.9261C175.73 12.9261 175.987 12.8864 176.219 12.8068C176.451 12.724 176.651 12.6013 176.82 12.4389C176.989 12.2765 177.118 12.076 177.208 11.8374L178.615 12.0909C178.502 12.5052 178.3 12.8681 178.008 13.1797C177.72 13.4879 177.357 13.7282 176.92 13.9006C176.485 14.0696 175.99 14.1541 175.433 14.1541ZM182.293 12.608L182.218 13.1499C182.168 13.5476 182.084 13.9619 181.964 14.3928C181.848 14.8269 181.728 15.2296 181.602 15.6009C181.479 15.9721 181.378 16.267 181.298 16.4858H180.244C180.287 16.2803 180.347 16.0019 180.423 15.6506C180.5 15.3026 180.574 14.9131 180.647 14.4822C180.72 14.0514 180.775 13.6122 180.811 13.1648L180.861 12.608H182.293ZM187.913 14V12.8864L191.358 9.31676C191.726 8.92898 192.029 8.58925 192.268 8.29759C192.51 8.0026 192.691 7.72254 192.81 7.45739C192.929 7.19223 192.989 6.91051 192.989 6.61222C192.989 6.27415 192.909 5.98248 192.75 5.73722C192.591 5.48864 192.374 5.29806 192.099 5.16548C191.824 5.02959 191.514 4.96165 191.169 4.96165C190.805 4.96165 190.487 5.03622 190.215 5.18537C189.943 5.33452 189.734 5.54498 189.588 5.81676C189.443 6.08854 189.37 6.40672 189.37 6.77131H187.903C187.903 6.15151 188.046 5.60961 188.331 5.1456C188.616 4.68158 189.007 4.32197 189.504 4.06676C190.001 3.80824 190.566 3.67898 191.199 3.67898C191.839 3.67898 192.402 3.80658 192.89 4.06179C193.38 4.31368 193.763 4.65838 194.038 5.09588C194.313 5.53007 194.451 6.0206 194.451 6.56747C194.451 6.94531 194.379 7.31487 194.237 7.67614C194.098 8.0374 193.854 8.4401 193.506 8.88423C193.158 9.32505 192.674 9.86032 192.054 10.4901L190.031 12.608V12.6825H194.615V14H187.913ZM200.044 14.169C199.258 14.1657 198.587 13.9586 198.03 13.5476C197.473 13.1366 197.047 12.5384 196.752 11.7528C196.458 10.9673 196.31 10.0211 196.31 8.91406C196.31 7.81037 196.458 6.86742 196.752 6.08523C197.051 5.30303 197.478 4.70644 198.035 4.29545C198.595 3.88447 199.265 3.67898 200.044 3.67898C200.823 3.67898 201.49 3.88613 202.047 4.30043C202.604 4.71141 203.03 5.308 203.325 6.0902C203.623 6.86908 203.772 7.81037 203.772 8.91406C203.772 10.0244 203.625 10.9723 203.33 11.7578C203.035 12.54 202.609 13.1383 202.052 13.5526C201.495 13.9635 200.826 14.169 200.044 14.169ZM200.044 12.8416C200.733 12.8416 201.272 12.5052 201.659 11.8324C202.051 11.1596 202.246 10.1868 202.246 8.91406C202.246 8.06889 202.157 7.35464 201.978 6.77131C201.802 6.18466 201.548 5.74053 201.217 5.43892C200.889 5.134 200.498 4.98153 200.044 4.98153C199.358 4.98153 198.819 5.3196 198.428 5.99574C198.037 6.67187 197.84 7.64465 197.836 8.91406C197.836 9.76255 197.924 10.4801 198.1 11.0668C198.279 11.6501 198.532 12.0926 198.86 12.3942C199.189 12.6925 199.583 12.8416 200.044 12.8416ZM205.536 14V12.8864L208.981 9.31676C209.349 8.92898 209.653 8.58925 209.891 8.29759C210.133 8.0026 210.314 7.72254 210.433 7.45739C210.552 7.19223 210.612 6.91051 210.612 6.61222C210.612 6.27415 210.532 5.98248 210.373 5.73722C210.214 5.48864 209.997 5.29806 209.722 5.16548C209.447 5.02959 209.137 4.96165 208.792 4.96165C208.428 4.96165 208.11 5.03622 207.838 5.18537C207.566 5.33452 207.357 5.54498 207.211 5.81676C207.066 6.08854 206.993 6.40672 206.993 6.77131H205.526C205.526 6.15151 205.669 5.60961 205.954 5.1456C206.239 4.68158 206.63 4.32197 207.127 4.06676C207.624 3.80824 208.189 3.67898 208.822 3.67898C209.462 3.67898 210.025 3.80658 210.513 4.06179C211.003 4.31368 211.386 4.65838 211.661 5.09588C211.936 5.53007 212.074 6.0206 212.074 6.56747C212.074 6.94531 212.002 7.31487 211.86 7.67614C211.721 8.0374 211.477 8.4401 211.129 8.88423C210.781 9.32505 210.297 9.86032 209.677 10.4901L207.654 12.608V12.6825H212.238V14H205.536ZM214.122 14V12.8864L217.567 9.31676C217.935 8.92898 218.238 8.58925 218.477 8.29759C218.719 8.0026 218.9 7.72254 219.019 7.45739C219.138 7.19223 219.198 6.91051 219.198 6.61222C219.198 6.27415 219.118 5.98248 218.959 5.73722C218.8 5.48864 218.583 5.29806 218.308 5.16548C218.033 5.02959 217.723 4.96165 217.378 4.96165C217.014 4.96165 216.696 5.03622 216.424 5.18537C216.152 5.33452 215.943 5.54498 215.797 5.81676C215.652 6.08854 215.579 6.40672 215.579 6.77131H214.112C214.112 6.15151 214.255 5.60961 214.54 5.1456C214.825 4.68158 215.216 4.32197 215.713 4.06676C216.21 3.80824 216.775 3.67898 217.408 3.67898C218.048 3.67898 218.611 3.80658 219.099 4.06179C219.589 4.31368 219.972 4.65838 220.247 5.09588C220.522 5.53007 220.66 6.0206 220.66 6.56747C220.66 6.94531 220.588 7.31487 220.446 7.67614C220.307 8.0374 220.063 8.4401 219.715 8.88423C219.367 9.32505 218.883 9.86032 218.263 10.4901L216.24 12.608V12.6825H220.824V14H214.122Z" fill="white"/>
<g clip-path="url(#clip0_11_2072)">
<path d="M103.704 36.8683C102.035 35.9683 100.13 35.2445 98 34.7421L98.0893 34.3509H106.822C108.005 34.3917 108.966 34.7419 109.278 35.9784L111.176 44.8738L111.757 47.553L117.073 34.3509H122.812L114.281 53.6909H108.541L103.704 36.8683ZM127.033 53.7115H121.606L125.001 34.3509H130.428L127.033 53.7115ZM146.708 34.8243L145.97 39.0049L145.479 38.7993C144.497 38.4079 143.201 38.0167 141.436 38.058C139.294 38.058 138.332 38.902 138.31 39.726C138.31 40.6324 139.473 41.2297 141.371 42.1155C144.498 43.4955 145.949 45.1842 145.927 47.3882C145.883 51.4046 142.175 54 136.48 54C134.046 53.9792 131.7 53.5045 130.427 52.9696L131.187 48.6236L131.902 48.9329C133.666 49.6545 134.827 49.9628 136.994 49.9628C138.557 49.9628 140.232 49.3649 140.253 48.0679C140.253 47.2234 139.54 46.605 137.44 45.6575C135.385 44.7304 132.639 43.1859 132.683 40.4051C132.706 36.6362 136.48 34 141.84 34C143.94 34 145.638 34.4325 146.708 34.8243ZM153.922 46.8527H158.433C158.21 45.8848 157.182 41.2505 157.182 41.2505L156.803 39.5823C156.535 40.303 156.066 41.4771 156.089 41.4358C156.089 41.4358 154.369 45.7405 153.922 46.8527ZM160.621 34.3509L165 53.7112H159.975C159.975 53.7112 159.483 51.4867 159.327 50.807H152.359C152.157 51.3217 151.22 53.7112 151.22 53.7112H145.525L153.586 35.9573C154.145 34.7008 155.129 34.3509 156.423 34.3509H160.621Z" fill="white"/>
</g>
<g clip-path="url(#clip1_11_2072)">
<path d="M199.312 54C205.008 54 209.625 49.5228 209.625 44C209.625 38.4772 205.008 34 199.312 34C193.617 34 189 38.4772 189 44C189 49.5228 193.617 54 199.312 54Z" fill="#EB001B"/>
<path d="M211.688 54C217.383 54 222 49.5228 222 44C222 38.4772 217.383 34 211.688 34C205.992 34 201.375 38.4772 201.375 44C201.375 49.5228 205.992 54 211.688 54Z" fill="#F79E1B"/>
<path fill-rule="evenodd" clip-rule="evenodd" d="M205.5 35.9993C208.005 37.8237 209.625 40.7284 209.625 44C209.625 47.2716 208.005 50.1763 205.5 52.0007C202.995 50.1763 201.375 47.2716 201.375 44C201.375 40.7284 202.995 37.8237 205.5 35.9993Z" fill="#FF5F00"/>
</g>
<defs>
<clipPath id="clip0_11_2072">
<rect width="67" height="20" fill="white" transform="translate(98 34)"/>
</clipPath>
<clipPath id="clip1_11_2072">
<rect width="33" height="20" fill="white" transform="translate(189 34)"/>
</clipPath>
</defs>
</svg>
